<svg width="26" height="26" viewBox="0 0 26 26" fill="#525252" xmlns="http://www.w3.org/2000/svg">
<g fill="#525252" clip-path="url(#clip0)">
<path d="M24.7676 21.1055H15.1973V15.8809C15.1973 12.7846 12.6783 10.2656 9.58203 10.2656C9.33022 10.2656 9.08232 10.2826 8.83921 10.3148L7.4501 7.33594H17.1504V10.0215C17.1504 10.426 17.4783 10.7539 17.8828 10.7539H18.6152V12.9512C18.6152 13.3557 18.9432 13.6836 19.3477 13.6836H20.0801V16.8574C20.0801 17.2619 20.408 17.5898 20.8125 17.5898C21.217 17.5898 21.5449 17.2619 21.5449 16.8574V13.6836H22.2773C22.6818 13.6836 23.0098 13.3557 23.0098 12.9512V10.7539H23.7422C24.1467 10.7539 24.4746 10.426 24.4746 10.0215V2.20898C24.4746 1.26665 23.708 0.5 22.7656 0.5H18.8594C18 0.5 17.287 1.13779 17.1681 1.96484H3.23438C1.75356 1.96484 0.548828 3.16958 0.548828 4.65039C0.548828 5.05596 0.639697 5.44058 0.801367 5.78564L0.800879 5.78579L4.44814 13.6073C4.13896 14.3028 3.9668 15.072 3.9668 15.8809V21.1055H1.23242C0.82793 21.1055 0.5 21.4334 0.5 21.8379V24.7676C0.5 25.1721 0.82793 25.5 1.23242 25.5H24.7676C25.1721 25.5 25.5 25.1721 25.5 24.7676V21.8379C25.5 21.4334 25.1721 21.1055 24.7676 21.1055ZM21.5449 12.2188H20.0801V10.7539H21.5449V12.2188ZM18.6152 2.20898C18.6152 2.07437 18.7248 1.96484 18.8594 1.96484H22.7656C22.9002 1.96484 23.0098 2.07437 23.0098 2.20898V3.42969H21.7891C21.3846 3.42969 21.0566 3.75762 21.0566 4.16211C21.0566 4.5666 21.3846 4.89453 21.7891 4.89453H23.0098V6.35938H21.7891C21.3846 6.35938 21.0566 6.6873 21.0566 7.0918C21.0566 7.49629 21.3846 7.82422 21.7891 7.82422H23.0098V9.28906H18.6152V2.20898ZM9.58203 11.7305C11.8706 11.7305 13.7324 13.5923 13.7324 15.8809V21.1055H5.43164V15.8809C5.43164 13.5923 7.29351 11.7305 9.58203 11.7305ZM17.1504 3.42969V5.87109H6.76704C6.76704 5.87109 5.63994 3.4584 5.62524 3.42969H17.1504ZM2.01367 4.65039C2.01367 3.97729 2.56128 3.42969 3.23438 3.42969C3.90747 3.42969 4.45508 3.97729 4.45508 4.65039C4.45508 5.32349 3.90747 5.87109 3.23438 5.87109C2.56128 5.87109 2.01367 5.32349 2.01367 4.65039ZM3.13892 7.3335C3.17065 7.33462 3.20239 7.33594 3.23438 7.33594C4.09346 7.33594 4.85903 6.92998 5.35093 6.30039L7.40483 10.705C6.62754 11.0332 5.93926 11.5317 5.38643 12.1533L3.13892 7.3335ZM24.0352 24.0352H1.96484V22.5703H24.0352V24.0352Z" fill="white"/>
<path d="M9.58203 18.5664C11.0628 18.5664 12.2676 17.3617 12.2676 15.8809C12.2676 14.4 11.0628 13.1953 9.58203 13.1953C8.10122 13.1953 6.89648 14.4 6.89648 15.8809C6.89648 17.3617 8.10122 18.5664 9.58203 18.5664ZM9.58203 14.6602C10.2551 14.6602 10.8027 15.2078 10.8027 15.8809C10.8027 16.554 10.2551 17.1016 9.58203 17.1016C8.90894 17.1016 8.36133 16.554 8.36133 15.8809C8.36133 15.2078 8.90894 14.6602 9.58203 14.6602Z" fill="white"/>
</g>
<defs>
<clipPath id="clip0">
<rect width="25" height="25"  transform="translate(0.5 0.5)"/>
</clipPath>
</defs>
</svg>
