<svg width="30" height="30" viewBox="0 0 30 30" fill="none" xmlns="http://www.w3.org/2000/svg">
<g clip-path="url(#clip0)">
<path d="M29.2146 2.8018C28.663 2.21529 27.888 1.88013 27.078 1.88013C25.4651 1.88013 24.1594 3.18583 24.1594 4.79876C24.1594 5.0571 24.1943 5.31545 24.2641 5.56681L21.1011 7.80815C19.97 6.66304 18.1197 6.64908 16.9746 7.78022C16.1646 8.58319 15.8923 9.77717 16.2833 10.8525L13.3647 13.3102C12.443 11.9906 10.6276 11.6624 9.30097 12.5841C8.79824 12.9332 8.4212 13.4359 8.21871 14.0085L5.79584 13.024C5.52353 11.432 4.02232 10.3637 2.43035 10.636C0.838371 10.9083 -0.229928 12.4095 0.0423832 14.0015C0.314695 15.5935 1.8159 16.6618 3.40787 16.3895C4.45523 16.2149 5.32104 15.4817 5.67714 14.4833L8.10001 15.4678C8.37232 17.0598 9.87353 18.1281 11.4655 17.8557C12.869 17.6183 13.8954 16.4034 13.8954 14.979C13.8954 14.8882 13.8884 14.7905 13.8814 14.6997L17.0653 12.0115C18.2593 13.0938 20.1027 13.01 21.1849 11.816C21.8762 11.0549 22.1136 9.98664 21.8203 9.00911L24.9484 6.78872C26.0516 7.96874 27.895 8.0246 29.075 6.92837C30.255 5.82516 30.3109 3.98182 29.2146 2.8018ZM2.91911 15.0419C2.08123 15.0419 1.39696 14.3576 1.39696 13.5197C1.39696 12.6818 2.08123 11.9976 2.91911 11.9976C3.75699 11.9976 4.44126 12.6818 4.44126 13.5197C4.44126 14.3576 3.75699 15.0419 2.91911 15.0419ZM10.9698 16.5082C10.1319 16.5082 9.4476 15.8239 9.4476 14.986C9.4476 14.1481 10.1319 13.4638 10.9698 13.4638C11.8076 13.4638 12.4919 14.1481 12.4919 14.986C12.4919 15.8239 11.8146 16.5082 10.9698 16.5082ZM19.0274 11.3831C18.1895 11.3831 17.5052 10.6988 17.5052 9.86096C17.5052 9.02308 18.1895 8.33881 19.0274 8.33881C19.8653 8.33881 20.5495 9.02308 20.5495 9.86096C20.5495 10.6988 19.8653 11.3831 19.0274 11.3831ZM27.078 6.32091C26.2401 6.32091 25.5559 5.63664 25.5559 4.79876C25.5559 3.96087 26.2401 3.2766 27.078 3.2766C27.9159 3.2766 28.6002 3.96087 28.6002 4.79876C28.6002 5.64362 27.9229 6.32091 27.078 6.32091Z" fill="white"/>
<path d="M29.0332 10.0355H25.123C24.739 10.0355 24.4248 10.3497 24.4248 10.7338V27.3517C24.4248 27.7358 24.739 28.05 25.123 28.05H29.0332C29.4172 28.05 29.7314 27.7358 29.7314 27.3517V10.7338C29.7314 10.3497 29.4172 10.0355 29.0332 10.0355ZM28.3349 26.7233H25.8213V11.432H28.3349V26.7233Z" fill="white"/>
<path d="M21.0034 15.0628H17.0933C16.7092 15.0628 16.395 15.377 16.395 15.761V27.3517C16.395 27.7358 16.7092 28.05 17.0933 28.05H21.0034C21.3874 28.05 21.7016 27.7358 21.7016 27.3517V15.761C21.7016 15.377 21.3874 15.0628 21.0034 15.0628ZM20.3051 26.7233H17.7915V16.4593H20.3051V26.7233Z" fill="white"/>
<path d="M12.9039 20.2996H8.99377C8.60974 20.2996 8.29553 20.6138 8.29553 20.9978V27.4216C8.29553 27.8056 8.60974 28.1198 8.99377 28.1198H12.9039C13.2879 28.1198 13.6021 27.8056 13.6021 27.4216V20.9978C13.6021 20.6138 13.2879 20.2996 12.9039 20.2996ZM12.2056 26.7233H9.692V21.696H12.2056V26.7233Z" fill="white"/>
<path d="M4.87422 18.8333H0.964104C0.580075 18.8333 0.265869 19.1475 0.265869 19.5315V27.4216C0.265869 27.8056 0.580075 28.1198 0.964104 28.1198H4.87422C5.25825 28.1198 5.57245 27.8056 5.57245 27.4216V19.5315C5.57245 19.1475 5.25825 18.8333 4.87422 18.8333ZM4.17598 26.7233H1.66234V20.2297H4.17598V26.7233Z" fill="white"/>
</g>
<defs>
<clipPath id="clip0">
<rect width="30" height="30" fill="white"/>
</clipPath>
</defs>
</svg>
